<?xml version="1.0" encoding="utf-8"?>
<!-- Generator: Adobe Illustrator 24.1.2, SVG Export Plug-In . SVG Version: 6.00 Build 0)  -->
<svg version="1.1" id="Capa_1" xmlns="http://www.w3.org/2000/svg" xmlns:xlink="http://www.w3.org/1999/xlink" x="0px" y="0px"
	 viewBox="0 0 27.4 27.4" style="enable-background:new 0 0 27.4 27.4;" xml:space="preserve">
<style type="text/css">
	.st0{fill:#FFFFFF;}
</style>
<g>
	<path class="st0" d="M26.4,14.6C26.4,6.6,20.7,0,13.7,0S1,6.6,1,14.6c0,2.5,0.6,5,1.6,7.1L3.7,24c0,0.1,1.6,2.7,1.6,2.7
		c0.4,0.7,1.4,0.9,2.1,0.5l3.2-2c0.7-0.4,0.9-1.4,0.5-2.1l-1.4-2.3c-0.4-0.7-1.4-0.9-2.1-0.5l0,0l-0.4-0.8C6.4,18.1,6,16.4,6,14.6
		C6,9.3,9.5,5,13.7,5s7.7,4.3,7.7,9.6c0,1.7-0.4,3.4-1.1,4.9l-0.4,0.8l0,0c-0.7-0.4-1.6-0.2-2.1,0.5l-1.4,2.3
		c-0.4,0.7-0.2,1.6,0.5,2.1l3.2,2c0.7,0.4,1.6,0.2,2.1-0.5c0,0,1.5-2.6,1.6-2.7l1.1-2.2C25.8,19.6,26.4,17.1,26.4,14.6z M2.8,15.3
		l0.1-2.2c0-0.4,0.3-0.7,0.7-0.7c0.4,0,0.7,0.4,0.7,0.7l-0.1,2.2c0,0.4-0.3,0.7-0.7,0.7C3.1,16,2.7,15.7,2.8,15.3z M3.9,18.2
		c0.4-0.2,0.8,0,0.9,0.4l0.9,2c0.2,0.4,0,0.8-0.4,0.9c-0.4,0.2-0.8,0-0.9-0.4l-0.9-2C3.4,18.7,3.5,18.3,3.9,18.2z M6.1,7.7l-1,2
		c-0.2,0.3-0.6,0.5-1,0.3S3.6,9.3,3.8,9l1-2c0.2-0.3,0.6-0.5,1-0.3C6.1,6.9,6.3,7.3,6.1,7.7z M9.9,4.1L8.1,5.3
		c-0.3,0.2-0.8,0.1-1-0.2c-0.2-0.3-0.1-0.8,0.2-1l1.8-1.3c0.3-0.2,0.8-0.1,1,0.2C10.3,3.4,10.2,3.9,9.9,4.1z M14.8,3.2l-2.2,0
		c-0.4,0-0.7-0.3-0.7-0.7c0-0.4,0.3-0.7,0.7-0.7l2.2,0c0.4,0,0.7,0.3,0.7,0.7C15.5,2.9,15.2,3.2,14.8,3.2z M20.3,5.1
		c-0.2,0.3-0.6,0.4-1,0.2l-1.9-1.2c-0.3-0.2-0.4-0.6-0.2-1s0.6-0.4,1-0.2l1.9,1.2C20.4,4.3,20.5,4.7,20.3,5.1z M21.2,7.7
		c-0.2-0.3-0.1-0.8,0.3-1c0.3-0.2,0.8-0.1,1,0.3l1.1,1.9c0.2,0.3,0.1,0.8-0.3,1c-0.3,0.2-0.8,0.1-1-0.3L21.2,7.7z M24.1,19.1
		l-0.9,2.1c-0.1,0.4-0.6,0.5-0.9,0.4c-0.4-0.1-0.5-0.6-0.4-0.9l0.9-2.1c0.1-0.4,0.6-0.5,0.9-0.4C24.1,18.3,24.2,18.7,24.1,19.1z
		 M24,16c-0.4,0-0.7-0.3-0.8-0.6l-0.2-2.2c0-0.4,0.3-0.7,0.7-0.8c0.4,0,0.7,0.3,0.8,0.6l0.2,2.2C24.7,15.6,24.4,16,24,16z"/>
</g>
</svg>
