<?xml version="1.0" encoding="utf-8"?>
<!-- Generator: Adobe Illustrator 24.1.2, SVG Export Plug-In . SVG Version: 6.00 Build 0)  -->
<svg version="1.1" id="Capa_1" xmlns="http://www.w3.org/2000/svg" xmlns:xlink="http://www.w3.org/1999/xlink" x="0px" y="0px"
	 viewBox="0 0 27.4 27.4" style="enable-background:new 0 0 27.4 27.4;" xml:space="preserve">
<style type="text/css">
	.st0{fill:#FFFFFF;}
</style>
<g>
	<path class="st0" d="M1,12.8c0,8,5.7,14.6,12.7,14.6s12.7-6.6,12.7-14.6c0-2.5-0.6-5-1.6-7.1l-1.1-2.3c0-0.1-1.6-2.7-1.6-2.7
		C21.7,0,20.7-0.2,20,0.2l-3.2,2c-0.7,0.4-0.9,1.4-0.5,2.1l1.4,2.3c0.4,0.7,1.4,0.9,2.1,0.5l0,0l0.4,0.8c0.8,1.4,1.2,3.1,1.2,4.9
		c0,5.3-3.5,9.6-7.7,9.6S6,18.1,6,12.8c0-1.7,0.4-3.4,1.1-4.9l0.4-0.8l0,0c0.7,0.4,1.6,0.2,2.1-0.5L11,4.3c0.4-0.7,0.2-1.6-0.5-2.1
		l-3.2-2C6.6-0.2,5.7,0,5.2,0.7c0,0-1.5,2.6-1.6,2.7L2.5,5.6C1.6,7.8,1,10.3,1,12.8z M24.6,12.1l-0.1,2.2c0,0.4-0.3,0.7-0.7,0.7
		s-0.7-0.4-0.7-0.7l0.1-2.2c0-0.4,0.3-0.7,0.7-0.7S24.7,11.7,24.6,12.1z M23.5,9.2c-0.4,0.2-0.8,0-0.9-0.4l-0.9-2
		c-0.2-0.4,0-0.8,0.4-0.9c0.4-0.2,0.8,0,0.9,0.4l0.9,2C24,8.7,23.9,9.1,23.5,9.2z M21.3,19.7l1-2c0.2-0.3,0.6-0.5,1-0.3
		c0.4,0.2,0.5,0.7,0.3,1l-1,2c-0.2,0.3-0.6,0.5-1,0.3C21.3,20.5,21.1,20.1,21.3,19.7z M17.5,23.3l1.8-1.2c0.3-0.2,0.8-0.1,1,0.2
		c0.2,0.3,0.1,0.8-0.2,1l-1.8,1.3c-0.3,0.2-0.8,0.1-1-0.2C17.1,24,17.2,23.5,17.5,23.3z M12.6,24.2h2.2c0.4,0,0.7,0.3,0.7,0.7
		s-0.3,0.7-0.7,0.7h-2.2c-0.4,0-0.7-0.3-0.7-0.7S12.2,24.2,12.6,24.2z M7.1,22.3c0.2-0.3,0.6-0.4,1-0.2l1.9,1.2
		c0.3,0.2,0.4,0.6,0.2,1c-0.2,0.4-0.6,0.4-1,0.2l-1.9-1.2C7,23.1,6.9,22.7,7.1,22.3z M6.2,19.7c0.2,0.3,0.1,0.8-0.3,1
		c-0.3,0.2-0.8,0.1-1-0.3l-1.1-1.9c-0.2-0.3-0.1-0.8,0.3-1c0.3-0.2,0.8-0.1,1,0.3L6.2,19.7z M3.3,8.3l0.9-2.1
		c0.1-0.4,0.6-0.5,0.9-0.4c0.4,0.1,0.5,0.6,0.4,0.9L4.6,8.8C4.5,9.2,4,9.3,3.7,9.2C3.3,9.1,3.2,8.7,3.3,8.3z M3.4,11.4
		c0.4,0,0.7,0.3,0.8,0.6l0.2,2.2c0,0.4-0.3,0.7-0.7,0.8c-0.4,0-0.7-0.3-0.8-0.6l-0.2-2.2C2.7,11.8,3,11.4,3.4,11.4z"/>
</g>
</svg>
